<svg width="15" height="13" viewBox="0 0 15 13" fill="none" xmlns="http://www.w3.org/2000/svg">
<path d="M14.3257 1.91235C13.8207 2.15068 13.2744 2.30957 12.7032 2.38901C13.2827 2.01827 13.7297 1.42685 13.9449 0.720679C13.3986 1.06494 12.7942 1.3121 12.1568 1.45333C11.6436 0.861914 10.9068 0.5 10.0956 0.5C8.53928 0.5 7.27273 1.85056 7.27273 3.51006C7.27273 3.7484 7.29756 3.9779 7.34723 4.19858C5.00452 4.075 2.9267 2.87451 1.53597 1.05611C1.2959 1.49747 1.15518 2.01827 1.15518 2.56556C1.15518 3.60716 1.65187 4.53401 2.41345 5.07247C1.94988 5.05482 1.51941 4.92241 1.13862 4.6929C1.13862 4.70173 1.13862 4.71938 1.13862 4.72821C1.13862 6.18469 2.10716 7.40284 3.39855 7.67648C3.15849 7.7471 2.91014 7.78241 2.65352 7.78241C2.4714 7.78241 2.29756 7.76475 2.12372 7.72944C2.47968 8.92111 3.52273 9.795 4.75617 9.82148C3.78763 10.6248 2.57074 11.1102 1.25451 11.1102C1.02273 11.1102 0.799216 11.0926 0.583984 11.0661C1.83398 11.9223 3.31577 12.4167 4.90518 12.4167C10.0956 12.4167 12.935 7.83537 12.935 3.85432C12.935 3.72191 12.935 3.59833 12.9267 3.46593C13.4731 3.04222 13.9449 2.51259 14.3257 1.91235Z" fill="#1DA1F2"/>
</svg>
